Coordinates
version=1
nRows=8
nColumns=42
inDegrees=yes

Units are S.I. units (second, meters, Newtons, ...)
If the header above contains a line with 'inDegrees', this indicates whether rotational values are in degrees (yes) or radians (no).

endheader
time	pelvis_tilt	pelvis_list	pelvis_rotation	pelvis_tx	pelvis_ty	pelvis_tz	hip_flexion_r	hip_adduction_r	hip_rotation_r	knee_angle_r	knee_adduction_r	knee_angle_r_beta	ankle_angle_r	subtalar_angle_r	mtp_angle_r	hip_flexion_l	hip_adduction_l	hip_rotation_l	knee_angle_l	knee_adduction_l	knee_angle_l_beta	ankle_angle_l	subtalar_angle_l	mtp_angle_l	lumbar_extension	lumbar_bending	lumbar_rotation	arm_flex_r	arm_add_r	arm_rot_r	elbow_flex_r	pro_sup_r	wrist_flex_r	wrist_dev_r	arm_flex_l	arm_add_l	arm_rot_l	elbow_flex_l	pro_sup_l	wrist_flex_l	wrist_dev_l
      1.91000000	     24.39658925	      3.08468353	      7.21279789	     -0.13256163	      0.93245998	      0.16437278	    -17.87604325	      0.12218011	    -39.64863194	     25.09800653	     -7.01099879	      0.43804285	     33.74645230	     34.97556427	     -7.51119031	     -8.96003830	      1.96969724	    -10.03449287	     56.52243017	    -14.28702482	      0.98650251	     21.56420347	     12.87133409	     -7.51119031	    -50.08565334	      4.64808359	     -5.10444800	      5.16190965	    -15.92505892	      3.21908675	     50.23421610	     90.00000001	      0.00000000	      0.00000000	     11.43230882	    -13.61967060	      2.57153672	     48.69374250	     90.00000001	      0.00000000	      0.00000000
      1.92000000	     24.61379642	      3.14079708	      7.00267576	     -0.12024510	      0.93266518	      0.16559781	    -19.37950296	      0.39967895	    -39.62710183	     24.20341020	     -6.86634987	      0.42242920	     34.16514063	     35.20120079	     -7.51097711	     -7.77066123	      2.15755546	    -10.62539384	     55.07637857	    -14.07949553	      0.96126415	     22.21770719	     12.29493414	     -7.51097711	    -50.35526433	      4.38975623	     -4.67555638	      5.34817665	    -16.19375869	      3.39770559	     50.95174640	     90.00000001	      0.00000000	      0.00000000	     10.70495469	    -13.57879683	      2.56980774	     48.25038173	     90.00000001	      0.00000000	      0.00000000
      1.93000000	     24.86988673	      3.12571854	      6.75236858	     -0.10787363	      0.93262601	      0.16685353	    -20.93362415	      0.71623325	    -39.59483836	     23.29535239	     -6.68125456	      0.40658060	     34.57634414	     35.51982356	     -7.51076579	     -6.70418566	      2.23226928	    -11.36466741	     53.36425739	    -13.86995519	      0.93138199	     22.77864219	     11.84996454	     -7.51076579	    -50.64643085	      4.17135992	     -4.13967722	      5.49421109	    -16.54507162	      3.58074281	     51.69546692	     90.00000001	      0.00000000	      0.00000000	      9.96959105	    -13.48571963	      2.56682483	     47.81507347	     90.00000001	      0.00000000	      0.00000000
      1.94000000	     25.12554267	      3.06935401	      6.47755092	     -0.09544639	      0.93231671	      0.16807204	    -22.50732898	      1.04117136	    -39.56435654	     22.36683203	     -6.47160460	      0.39037486	     34.98686556	     35.98341078	     -7.51056449	     -5.71187291	      2.25512196	    -12.22175141	     51.41050967	    -13.69349922	      0.89728266	     23.24950324	     11.61019364	     -7.51056449	    -50.92891543	      3.97611072	     -3.58490647	      5.64654643	    -16.91645005	      3.77707353	     52.43414799	     90.00000001	      0.00000000	      0.00000000	      9.22482754	    -13.38686204	      2.54746260	     47.37368812	     90.00000001	      0.00000000	      0.00000000
      1.95000000	     25.35559461	      2.91514265	      6.17922578	     -0.08291450	      0.93167070	      0.16923526	    -24.05606819	      1.39722744	    -39.53543432	     21.45491781	     -6.20715223	      0.37445896	     35.23965571	     36.74456930	     -7.50988817	     -4.71113523	      2.07094948	    -13.82719760	     49.19245009	    -13.84956738	      0.85857022	     23.84570972	     13.03892074	     -7.50988817	    -51.15993035	      3.86480324	     -2.91836510	      5.55148893	    -17.66267335	      4.61482744	     53.88996106	     90.00000001	      0.00000000	      0.00000000	      8.48415809	    -13.17471783	      2.37931754	     46.80257814	     90.00000001	      0.00000000	      0.00000000
      1.96000000	     25.47583740	      2.78070086	      5.96533276	     -0.07047759	      0.93075865	      0.17031623	    -25.49549378	      1.79132980	    -39.49788573	     20.49744437	     -5.97335697	      0.35774789	     35.62715201	     36.78828007	     -7.50971483	     -3.69744582	      2.04642265	    -14.48124901	     46.90782660	    -13.51693155	      0.81869602	     24.06777951	     12.83671881	     -7.50971483	    -51.28265335	      3.75918576	     -2.38951441	      5.89879464	    -17.90034523	      4.62920009	     54.09851717	     90.00000001	      0.00000000	      0.00000000	      7.66616577	    -13.10022342	      2.32466879	     46.44435666	     90.00000001	      0.00000000	      0.00000000
      1.97000000	     25.61063414	      2.57350388	      5.74792396	     -0.05791895	      0.92957452	      0.17126326	    -27.00308595	      2.18409744	    -39.46681996	     19.52707905	     -5.58791928	      0.34081182	     35.80753051	     37.28408386	     -7.50908986	     -2.71369303	      1.80474144	    -15.99417773	     44.39057078	    -13.52002114	      0.77476162	     24.47392333	     14.84509099	     -7.50908986	    -51.39895010	      3.73824676	     -1.82862357	      6.09096930	    -18.37155029	      5.01540082	     54.75892411	     90.00000001	      0.00000000	      0.00000000	      6.86718257	    -12.86556418	      1.89109676	     45.93498072	     90.00000001	      0.00000000	      0.00000000
      1.98000000	     25.53887099	      2.36226294	      5.61961088	     -0.04555869	      0.92801636	      0.17210140	    -28.22685765	      2.60568569	    -39.44642629	     18.63560713	     -5.26792436	      0.32525270	     36.16316617	     37.46268511	     -7.50890631	     -1.57791277	      1.70791030	    -16.43230691	     41.91796568	    -12.97406464	      0.73160652	     24.43531955	     15.19427976	     -7.50890631	    -51.33638682	      3.74494284	     -1.35025142	      6.47265665	    -18.59758948	      5.01181776	     54.88918644	     90.00000001	      0.00000000	      0.00000000	      6.05229478	    -12.74549331	      1.75722537	     45.53892204	     90.00000001	      0.00000000	      0.00000000
